# xmcd
#
# Track frame offsets:
#	150
#	15915
#	30617
#	43167
#	59210
#	75553
#	90663
#	101765
#	114781
#	136744
#	151145
#	163731
#	179661
#	205792
#
# Disc length: 2941 seconds
#
# Revision: 0
# Processed by: cddbd v1.5.1PL0 Copyright (c) Steve Scherf et al.
# Submitted via: EasyCDDAExtractor 7.1.3.1
#
DISCID=ae0b7b0e
DTITLE=Various Artist - Michael and Tre Twitty LIVE Three Generations
DYEAR=2002
DGENRE=Country
TTITLE0=Michael Twitty - Boogie Grass Band
TTITLE1=Michael Twitty - The Image Of Me
TTITLE2=Michael Twitty - Lying Here With Linda On My Mind
TTITLE3=Michael Twitty - Hello Darlin'
TTITLE4=Michael Twitty - Don't Take It Away
TTITLE5=Tre Twitty - Red Neckin' Love Makin' Night
TTITLE6=Tre Twitty - Lonely Blue Boy
TTITLE7=Tre Twitty - I Don't Know A Thing About Love
TTITLE8=Michael and Tre Twitty - Rainy Night In Georgia
TTITLE9=Michael and Tre Twitty - God Bless The USA
TTITLE10=Michael Twitty - Tight Fittin' Jeans
TTITLE11=Michael Twitty - I May Never Get To Heaven
TTITLE12=Michael Twitty - That's My Job
TTITLE13=Michael Twitty - It's Only Make Believe
EXTD=
EXTT0=
EXTT1=
EXTT2=
EXTT3=
EXTT4=
EXTT5=
EXTT6=
EXTT7=
EXTT8=
EXTT9=
EXTT10=
EXTT11=
EXTT12=
EXTT13=
PLAYORDER=
